<?xml version="1.0" encoding="UTF-8"?>
<svg xmlns="http://www.w3.org/2000/svg" xmlns:xlink="http://www.w3.org/1999/xlink" width="24px" height="24px" viewBox="0 0 24 24" version="1.1">
<g id="surface1">
<path style=" stroke:none;fill-rule:evenodd;fill:rgb(0%,0%,0%);fill-opacity:1;" d="M 12 0 C 5.371094 0 0 5.371094 0 12 C 0 18.628906 5.371094 24 12 24 C 18.628906 24 24 18.628906 24 12 C 24 5.371094 18.628906 0 12 0 Z M 17.5625 8.160156 C 17.382812 10.058594 16.601562 14.664062 16.203125 16.789062 C 16.035156 17.6875 15.703125 17.988281 15.382812 18.019531 C 14.6875 18.082031 14.15625 17.558594 13.480469 17.113281 C 12.425781 16.421875 11.828125 15.992188 10.804688 15.316406 C 9.617188 14.535156 10.386719 14.105469 11.0625 13.40625 C 11.238281 13.222656 14.308594 10.429688 14.367188 10.175781 C 14.375 10.144531 14.382812 10.023438 14.3125 9.964844 C 14.242188 9.902344 14.140625 9.921875 14.066406 9.9375 C 13.960938 9.964844 12.273438 11.078125 9.003906 13.285156 C 8.523438 13.613281 8.089844 13.773438 7.699219 13.765625 C 7.273438 13.757812 6.449219 13.523438 5.835938 13.324219 C 5.085938 13.078125 4.488281 12.949219 4.539062 12.535156 C 4.566406 12.320312 4.863281 12.097656 5.429688 11.871094 C 8.929688 10.347656 11.261719 9.34375 12.429688 8.855469 C 15.761719 7.472656 16.453125 7.230469 16.90625 7.222656 C 17.472656 7.214844 17.609375 7.679688 17.5625 8.160156 Z M 17.5625 8.160156 "/>
</g>
</svg>
