<?xml version="1.0" encoding="UTF-8"?>
<svg xmlns="http://www.w3.org/2000/svg" xmlns:xlink="http://www.w3.org/1999/xlink" width="24px" height="24px" viewBox="0 0 24 24" version="1.1">
<g id="surface1">
<path style=" stroke:none;fill-rule:nonzero;fill:rgb(0%,0%,0%);fill-opacity:1;" d="M 22.78125 1.308594 C 22.378906 1.433594 0.554688 10.152344 0.414062 10.246094 C 0.113281 10.4375 -0.0507812 10.882812 0.0429688 11.234375 C 0.101562 11.464844 0.304688 11.734375 0.492188 11.832031 C 0.570312 11.875 1.925781 12.402344 3.511719 13.007812 C 5.09375 13.613281 6.398438 14.113281 6.40625 14.125 C 6.417969 14.132812 6.792969 15.539062 7.242188 17.246094 C 7.691406 18.953125 8.085938 20.390625 8.113281 20.453125 C 8.34375 20.902344 8.933594 21.101562 9.375 20.882812 C 9.441406 20.851562 10.226562 20.292969 11.125 19.644531 L 12.757812 18.472656 L 13.1875 18.769531 C 14.679688 19.800781 18.765625 22.550781 18.894531 22.621094 C 19 22.679688 19.15625 22.707031 19.34375 22.710938 C 19.589844 22.710938 19.664062 22.691406 19.835938 22.570312 C 19.960938 22.484375 20.082031 22.34375 20.140625 22.21875 C 20.28125 21.9375 24.019531 2.363281 23.984375 2.101562 C 23.910156 1.539062 23.3125 1.144531 22.78125 1.308594 Z M 18.5625 5.222656 C 18.394531 5.386719 16.273438 7.421875 13.851562 9.75 C 8.722656 14.667969 8.742188 14.652344 8.695312 14.859375 C 8.675781 14.9375 8.648438 14.992188 8.628906 14.96875 C 8.609375 14.949219 8.480469 14.5 8.34375 13.972656 C 8.078125 12.964844 7.96875 12.730469 7.695312 12.589844 C 7.621094 12.554688 6.703125 12.191406 5.648438 11.789062 C 4.59375 11.386719 3.703125 11.039062 3.664062 11.019531 C 3.617188 10.992188 4.964844 10.4375 7.785156 9.3125 C 10.09375 8.394531 13.503906 7.035156 15.375 6.285156 C 17.246094 5.539062 18.792969 4.925781 18.820312 4.925781 C 18.84375 4.921875 18.730469 5.058594 18.5625 5.222656 Z M 21.507812 5.234375 C 21.484375 5.363281 20.835938 8.757812 20.066406 12.789062 C 19.296875 16.8125 18.660156 20.125 18.648438 20.132812 C 18.613281 20.171875 11.109375 15.078125 11.125 15.039062 C 11.136719 14.992188 21.484375 5.019531 21.519531 5.019531 C 21.535156 5.015625 21.53125 5.113281 21.507812 5.234375 Z M 10.050781 16.640625 C 10.601562 17.015625 11.058594 17.328125 11.058594 17.34375 C 11.058594 17.386719 9.558594 18.429688 9.535156 18.40625 C 9.519531 18.394531 9.359375 17.828125 9.183594 17.148438 C 9.003906 16.472656 8.84375 15.871094 8.828125 15.820312 C 8.804688 15.734375 8.8125 15.742188 8.921875 15.84375 C 8.984375 15.910156 9.492188 16.265625 10.050781 16.640625 Z M 10.050781 16.640625 "/>
</g>
</svg>
