<?xml version="1.0" encoding="UTF-8"?>
<svg xmlns="http://www.w3.org/2000/svg" xmlns:xlink="http://www.w3.org/1999/xlink" width="24px" height="24px" viewBox="0 0 24 24" version="1.1">
<g id="surface1">
<path style=" stroke:none;fill-rule:nonzero;fill:rgb(0%,0%,0%);fill-opacity:1;" d="M 1.035156 4.574219 C 0.722656 4.660156 0.519531 4.78125 0.332031 4.996094 C -0.132812 5.523438 -0.09375 6.242188 0.46875 7.925781 C 1.28125 10.351562 2.710938 12.976562 4.289062 14.953125 C 6.304688 17.480469 8.433594 18.914062 10.851562 19.386719 C 11.441406 19.503906 12.828125 19.503906 13.285156 19.390625 C 14.042969 19.199219 14.460938 18.859375 14.601562 18.304688 C 14.621094 18.226562 14.632812 17.628906 14.628906 16.984375 C 14.625 16.332031 14.632812 15.726562 14.652344 15.632812 L 14.679688 15.46875 L 14.949219 15.609375 C 15.519531 15.914062 16.304688 16.632812 17.46875 17.910156 C 18.34375 18.867188 18.605469 19.105469 19.03125 19.308594 L 19.382812 19.476562 L 21.09375 19.476562 C 23.117188 19.476562 23.148438 19.472656 23.585938 19.03125 C 23.796875 18.816406 23.867188 18.707031 23.933594 18.492188 C 24.234375 17.457031 23.488281 16.21875 20.902344 13.46875 C 20.390625 12.921875 19.96875 12.460938 19.96875 12.445312 C 19.96875 12.425781 20.175781 12.117188 20.433594 11.75 C 21.40625 10.355469 22.445312 8.644531 22.96875 7.570312 C 23.433594 6.625 23.503906 6.394531 23.507812 5.859375 C 23.507812 5.339844 23.421875 5.132812 23.105469 4.855469 C 22.730469 4.539062 22.636719 4.523438 20.742188 4.523438 C 19.085938 4.523438 19.050781 4.523438 18.789062 4.632812 C 18.632812 4.691406 18.402344 4.84375 18.257812 4.976562 C 17.992188 5.21875 17.960938 5.269531 17.4375 6.414062 C 16.742188 7.914062 15.839844 9.402344 15.066406 10.320312 C 14.5625 10.914062 14.605469 11.082031 14.640625 8.503906 C 14.671875 5.617188 14.640625 5.316406 14.207031 4.875 C 13.84375 4.496094 13.835938 4.496094 11.21875 4.507812 L 8.972656 4.523438 L 8.695312 4.664062 C 8.207031 4.914062 7.917969 5.4375 7.988281 5.945312 C 8.023438 6.21875 8.195312 6.585938 8.429688 6.898438 C 8.53125 7.035156 8.65625 7.234375 8.710938 7.335938 C 8.914062 7.753906 8.925781 7.855469 8.929688 9.859375 L 8.929688 11.773438 L 8.746094 11.570312 C 8.511719 11.304688 7.871094 10.328125 7.523438 9.703125 C 6.957031 8.691406 6.394531 7.425781 5.90625 6.078125 C 5.59375 5.210938 5.339844 4.875 4.800781 4.632812 C 4.574219 4.527344 4.527344 4.523438 2.929688 4.515625 C 1.597656 4.503906 1.242188 4.515625 1.035156 4.574219 Z M 4.273438 6.078125 C 4.316406 6.125 4.414062 6.34375 4.492188 6.5625 C 5.203125 8.570312 6.195312 10.578125 7.171875 11.960938 C 7.550781 12.507812 8.28125 13.242188 8.621094 13.425781 C 9.160156 13.714844 9.820312 13.617188 10.125 13.199219 C 10.425781 12.796875 10.429688 12.734375 10.429688 10.171875 C 10.429688 8.078125 10.421875 7.8125 10.339844 7.476562 C 10.25 7.074219 10.003906 6.496094 9.828125 6.261719 C 9.769531 6.183594 9.703125 6.089844 9.683594 6.054688 C 9.65625 6.015625 10.011719 6 11.386719 6 L 13.125 6 L 13.125 8.351562 C 13.128906 9.652344 13.148438 10.921875 13.167969 11.179688 C 13.214844 11.734375 13.339844 12.074219 13.578125 12.285156 C 13.796875 12.472656 13.9375 12.523438 14.253906 12.519531 C 14.949219 12.519531 15.769531 11.910156 16.617188 10.773438 C 17.410156 9.707031 18.179688 8.382812 18.851562 6.929688 C 19.054688 6.484375 19.261719 6.089844 19.304688 6.054688 C 19.359375 6.015625 19.710938 6 20.679688 6 C 21.695312 6 21.984375 6.015625 21.984375 6.054688 C 21.984375 6.089844 21.910156 6.296875 21.820312 6.511719 C 21.511719 7.261719 20.492188 8.972656 19.386719 10.59375 C 18.613281 11.726562 18.449219 12.054688 18.449219 12.464844 C 18.453125 13.023438 18.566406 13.191406 19.828125 14.507812 C 20.390625 15.09375 21.183594 15.988281 21.570312 16.480469 C 22 17.015625 22.5 17.828125 22.5 17.980469 C 22.5 17.992188 21.886719 18 21.132812 18 L 19.765625 18 L 19.566406 17.882812 C 19.457031 17.816406 19.070312 17.4375 18.699219 17.03125 C 17.0625 15.214844 15.984375 14.316406 15.125 14.054688 C 14.664062 13.914062 14.078125 13.945312 13.765625 14.128906 C 13.5 14.28125 13.34375 14.503906 13.238281 14.882812 C 13.171875 15.113281 13.152344 15.414062 13.144531 16.519531 C 13.128906 17.726562 13.121094 17.882812 13.050781 17.921875 C 13.007812 17.945312 12.71875 17.976562 12.402344 17.984375 C 10.726562 18.0625 9.03125 17.410156 7.445312 16.082031 C 5.914062 14.804688 4.425781 12.84375 3.191406 10.496094 C 2.46875 9.113281 1.695312 7.140625 1.570312 6.351562 C 1.550781 6.25 1.527344 6.125 1.515625 6.078125 C 1.496094 6.003906 1.578125 6 2.851562 6 C 4.082031 6 4.210938 6.007812 4.273438 6.078125 Z M 4.273438 6.078125 "/>
</g>
</svg>
